<svg width="18" height="16" viewBox="0 0 18 16" fill="none" xmlns="http://www.w3.org/2000/svg">
<path d="M16.2 5.51134C16.2 4.99896 16.1997 4.66769 16.1789 4.41586C16.159 4.17477 16.1251 4.08489 16.1024 4.04086C16.0166 3.87439 15.8779 3.73846 15.7078 3.65284C15.6632 3.63043 15.5728 3.59615 15.329 3.57645C15.0741 3.55588 14.7387 3.55562 14.2198 3.55562H1.8V12.2665C1.8 12.779 1.80026 13.1102 1.8211 13.362C1.84104 13.6028 1.87575 13.6921 1.89844 13.7361C1.98513 13.9042 2.12275 14.041 2.29131 14.1259C2.33568 14.1482 2.42635 14.1817 2.67012 14.2014C2.92477 14.2219 3.25964 14.2222 3.77754 14.2222H14.2225C14.7401 14.2222 15.0746 14.2219 15.329 14.2014C15.5722 14.1818 15.6633 14.1482 15.7078 14.1259C15.8775 14.0405 16.0163 13.9038 16.1024 13.737C16.1251 13.693 16.1589 13.6033 16.1789 13.362C16.1997 13.1101 16.2 12.779 16.2 12.2665V5.51134ZM18 12.2665C18 12.7497 18.001 13.1659 17.9727 13.507C17.9437 13.8582 17.8789 14.2073 17.7056 14.5434C17.4465 15.0455 17.0328 15.4537 16.5252 15.7092C16.1849 15.8804 15.8312 15.9444 15.4758 15.9731C15.131 16.0009 14.7105 16 14.2225 16H3.77754C3.28932 16 2.8683 16.0009 2.52334 15.9731C2.168 15.9444 1.81423 15.8805 1.47393 15.7092C0.965208 15.4531 0.552858 15.0443 0.294437 14.5434C0.121057 14.2073 0.0563392 13.8582 0.0272501 13.507C-0.000964547 13.166 3.99757e-06 12.7497 3.99757e-06 12.2665V2.66674C3.99757e-06 1.19398 1.20883 8.28845e-05 2.7 8.28845e-05H6.00733C6.40443 8.04036e-05 6.75019 -0.0054309 7.08486 0.0738672C7.36127 0.139406 7.62455 0.247583 7.86533 0.39331C8.15888 0.570979 8.3993 0.816518 8.68008 1.09383L9.37266 1.77785H14.2198C14.709 1.77785 15.1305 1.77689 15.4758 1.80476C15.8314 1.83349 16.1849 1.89741 16.5252 2.06865C17.0324 2.32387 17.4463 2.73113 17.7056 3.23357C17.8791 3.56989 17.9437 3.91949 17.9727 4.27089C18.001 4.61193 18 5.02818 18 5.51134V12.2665Z" fill="#2D4059"/>
</svg>
