<svg width="15" height="18" viewBox="0 0 15 18" fill="none" xmlns="http://www.w3.org/2000/svg">
<path d="M7.24254 18.0005C6.95831 17.9856 6.68327 17.8949 6.446 17.7377L0.774672 14.3205C0.540576 14.1785 0.347027 13.9786 0.212703 13.74C0.0783789 13.5014 0.0078125 13.2323 0.0078125 12.9585C0.0078125 12.6847 0.0783789 12.4155 0.212703 12.1769C0.347027 11.9383 0.540576 11.7384 0.774672 11.5964L2.50315 10.5689C2.75275 10.4169 3.03934 10.3365 3.33155 10.3365C3.62376 10.3365 3.91035 10.4169 4.15995 10.5689L7.24254 12.4248L10.3251 10.5689C10.5792 10.409 10.8733 10.3242 11.1734 10.3242C11.4736 10.3242 11.7677 10.409 12.0217 10.5689L13.7502 11.6283C13.9843 11.7703 14.1779 11.9702 14.3122 12.2088C14.4465 12.4474 14.5171 12.7165 14.5171 12.9903C14.5171 13.2641 14.4465 13.5333 14.3122 13.7719C14.1779 14.0105 13.9843 14.2104 13.7502 14.3524L8.03907 17.7377C7.80181 17.8949 7.52676 17.9856 7.24254 18.0005ZM3.33155 11.8991L1.60307 12.9585L7.24254 16.4075L12.89 12.9585L11.1535 11.8991L8.03907 13.755C7.7969 13.8948 7.52218 13.9684 7.24254 13.9684C6.9629 13.9684 6.68818 13.8948 6.446 13.755L3.33155 11.8991Z" fill="#2D4059"/>
<path d="M7.24269 14.0162C6.95847 14.0013 6.68342 13.9105 6.44616 13.7533L0.766859 10.3362C0.532763 10.1942 0.339215 9.99424 0.204891 9.75565C0.0705664 9.51707 0 9.2479 0 8.9741C0 8.7003 0.0705664 8.43112 0.204891 8.19254C0.339215 7.95396 0.532763 7.75402 0.766859 7.61202L2.50331 6.58449C2.75291 6.43254 3.03949 6.35217 3.3317 6.35217C3.62392 6.35217 3.9105 6.43254 4.1601 6.58449L7.24269 8.44042L10.3253 6.58449C10.5794 6.42465 10.8734 6.33984 11.1736 6.33984C11.4738 6.33984 11.7678 6.42465 12.0219 6.58449L13.7583 7.64388C13.9924 7.78588 14.186 7.98582 14.3203 8.2244C14.4546 8.46299 14.5252 8.73216 14.5252 9.00596C14.5252 9.27976 14.4546 9.54893 14.3203 9.78751C14.186 10.0261 13.9924 10.226 13.7583 10.368L8.03923 13.7533C7.80196 13.9105 7.52692 14.0013 7.24269 14.0162ZM3.3317 7.91471L1.60322 8.9741L7.24269 12.4231L12.8822 8.9741L11.1537 7.91471L7.65689 10.0494C7.5358 10.1193 7.39844 10.1561 7.25862 10.1561C7.1188 10.1561 6.98144 10.1193 6.86035 10.0494L3.3317 7.91471Z" fill="#666EFE"/>
<path d="M7.24254 10.1701C7.09611 10.1691 6.9528 10.1278 6.82834 10.0506L0.774672 6.35472C0.540576 6.21272 0.347027 6.01278 0.212703 5.7742C0.0783789 5.53562 0.0078125 5.26644 0.0078125 4.99264C0.0078125 4.71885 0.0783789 4.44967 0.212703 4.21109C0.347027 3.9725 0.540576 3.77257 0.774672 3.63057L6.446 0.213431C6.68818 0.0736098 6.9629 0 7.24254 0C7.52218 0 7.7969 0.0736098 8.03907 0.213431L13.6785 3.66243C13.9126 3.80443 14.1062 4.00436 14.2405 4.24295C14.3748 4.48153 14.4454 4.75071 14.4454 5.0245C14.4454 5.2983 14.3748 5.56748 14.2405 5.80606C14.1062 6.04464 13.9126 6.24458 13.6785 6.38658L7.62487 10.0825C7.50673 10.1431 7.3753 10.1732 7.24254 10.1701ZM12.882 4.99264L7.24254 1.54364L1.60307 4.99264L7.24254 8.44164L12.882 4.99264Z" fill="#2D4059"/>
</svg>
