<svg width="16" height="16" viewBox="0 0 16 16" fill="none" xmlns="http://www.w3.org/2000/svg">
<path d="M8 0C8.3 0 8.596 0.0160001 8.888 0.0488001C8.99243 0.0603564 9.09356 0.0923679 9.18561 0.143007C9.27767 0.193646 9.35885 0.261921 9.42452 0.343934C9.49019 0.425947 9.53906 0.520091 9.56835 0.620992C9.59763 0.721892 9.60676 0.827573 9.5952 0.932C9.58364 1.03643 9.55163 1.13756 9.50099 1.22961C9.45035 1.32167 9.38208 1.40285 9.30007 1.46852C9.21805 1.53419 9.12391 1.58306 9.02301 1.61235C8.92211 1.64163 8.81643 1.65076 8.712 1.6392C7.39364 1.49172 6.06202 1.75755 4.90134 2.39994C3.74066 3.04233 2.80828 4.02951 2.23317 5.22496C1.65806 6.4204 1.46864 7.76502 1.69111 9.07282C1.91358 10.3806 2.53695 11.587 3.47499 12.525C4.41303 13.463 5.61938 14.0864 6.92718 14.3089C8.23498 14.5314 9.5796 14.3419 10.775 13.7668C11.9705 13.1917 12.9577 12.2593 13.6001 11.0987C14.2424 9.93798 14.5083 8.60636 14.3608 7.288C14.3492 7.18357 14.3584 7.07789 14.3877 6.97699C14.4169 6.87609 14.4658 6.78195 14.5315 6.69993C14.6641 6.5343 14.8571 6.42814 15.068 6.4048C15.2789 6.38146 15.4904 6.44286 15.6561 6.57548C15.7381 6.64115 15.8064 6.72233 15.857 6.81439C15.9076 6.90645 15.9396 7.00757 15.9512 7.112C15.9832 7.404 16 7.7 16 8C16 12.4184 12.4184 16 8 16C3.5816 16 0 12.4184 0 8C0 3.5816 3.5816 0 8 0ZM7.9744 4.7016C8.02712 4.90698 7.99616 5.12489 7.8883 5.30745C7.78045 5.49 7.60453 5.62228 7.3992 5.6752C6.8351 5.82297 6.34403 6.17094 6.01763 6.65417C5.69123 7.1374 5.5518 7.72288 5.62536 8.30136C5.69892 8.87984 5.98044 9.41179 6.41739 9.79795C6.85434 10.1841 7.41687 10.3981 8 10.4C8.53217 10.3999 9.04926 10.2231 9.47005 9.89734C9.89083 9.57154 10.1915 9.11521 10.3248 8.6C10.3815 8.39868 10.5148 8.22758 10.6961 8.12334C10.8774 8.0191 11.0924 7.99002 11.2949 8.04232C11.4974 8.09461 11.6714 8.22414 11.7795 8.40315C11.8877 8.58215 11.9215 8.7964 11.8736 9C11.6282 9.94074 11.0487 10.76 10.2433 11.3046C9.43798 11.8493 8.46189 12.0821 7.49741 11.9596C6.53293 11.8371 5.64603 11.3677 5.0024 10.639C4.35878 9.91031 4.00246 8.97223 4 8C4.00014 7.11318 4.29486 6.25153 4.83787 5.5504C5.38088 4.84926 6.14141 4.34837 7 4.1264C7.10175 4.10017 7.20767 4.09425 7.31171 4.10897C7.41574 4.12368 7.51586 4.15875 7.60635 4.21216C7.69683 4.26557 7.77591 4.33629 7.83906 4.42027C7.90221 4.50425 7.9482 4.59984 7.9744 4.7016ZM13.2032 0.1016C13.3492 0.162143 13.474 0.26459 13.5619 0.396008C13.6497 0.527425 13.6967 0.681924 13.6968 0.84V2.304H15.16C15.3182 2.30403 15.4728 2.35097 15.6044 2.43888C15.7359 2.52679 15.8384 2.65172 15.8989 2.79788C15.9595 2.94404 15.9753 3.10486 15.9445 3.26003C15.9136 3.41519 15.8374 3.55772 15.7256 3.6696L12.896 6.496C12.746 6.64604 12.5426 6.73035 12.3304 6.7304H10.4L8.9376 8.1936C8.78749 8.34371 8.58389 8.42805 8.3716 8.42805C8.15931 8.42805 7.95571 8.34371 7.8056 8.1936C7.65549 8.04349 7.57116 7.83989 7.57116 7.6276C7.57116 7.41531 7.65549 7.21171 7.8056 7.0616L9.2688 5.6V3.6688C9.26885 3.45664 9.35316 3.25319 9.5032 3.1032L12.3312 0.2744C12.4431 0.162454 12.5856 0.0862067 12.7409 0.0553051C12.8961 0.0244035 13.057 0.0402361 13.2032 0.1008M12.0968 2.7704L10.8688 4V5.1312H12L13.2288 3.9032H12.8968C12.6846 3.9032 12.4811 3.81891 12.3311 3.66889C12.1811 3.51886 12.0968 3.31537 12.0968 3.1032V2.7704Z" fill="#A0A3BD"/>
</svg>
