<svg width="15" height="10" viewBox="0 0 15 10" fill="none" xmlns="http://www.w3.org/2000/svg">
<path d="M0 8.33326C0 7.89881 0.16392 7.5077 0.426441 7.20995L0.422128 7.20658L6.31501 0.540011C6.62039 0.196658 7.04896 0 7.5 0C7.95104 0 8.37961 0.196658 8.68499 0.540011L14.5779 7.20664L14.5736 7.21001C14.8361 7.50776 15 7.89886 15 8.33331C15 9.25334 14.28 10 13.3928 10C12.9246 10 12.5057 9.78888 12.2121 9.45662L12.2078 9.45999L7.5 4.13331L2.79109 9.45993L2.78678 9.45656C2.49429 9.78882 2.07641 9.99994 1.60711 9.99994C0.719999 9.99994 0 9.25328 0 8.33326Z" fill="#666EFE"/>
</svg>
