<svg width="24" height="24" viewBox="0 0 24 24" fill="none" xmlns="http://www.w3.org/2000/svg">
<path d="M21.2305 23.9997H2.7692C2.03476 23.9997 1.3304 23.708 0.811079 23.1886C0.291754 22.6693 0 21.9649 0 21.2305V2.7692C0 2.03476 0.291754 1.3304 0.811079 0.811079C1.3304 0.291754 2.03476 8.20098e-09 2.7692 8.20098e-09H15.9321C16.5921 -5.07635e-05 17.2305 0.235643 17.7321 0.664607L23.0766 5.20609C23.3722 5.47037 23.6076 5.79502 23.7668 6.15811C23.926 6.5212 24.0055 6.91425 23.9997 7.31068V21.2305C23.9997 21.9649 23.708 22.6693 23.1886 23.1886C22.6693 23.708 21.9649 23.9997 21.2305 23.9997ZM2.7692 1.84613C2.52438 1.84613 2.2896 1.94338 2.11649 2.11649C1.94338 2.2896 1.84613 2.52438 1.84613 2.7692V21.2305C1.84613 21.4753 1.94338 21.7101 2.11649 21.8832C2.2896 22.0563 2.52438 22.1536 2.7692 22.1536H21.2305C21.4753 22.1536 21.7101 22.0563 21.8832 21.8832C22.0563 21.7101 22.1536 21.4753 22.1536 21.2305V7.31068C22.1536 7.17735 22.1247 7.0456 22.0689 6.9245C22.0132 6.8034 21.9318 6.69581 21.8305 6.60915L16.5321 2.06767C16.3649 1.92468 16.1521 1.84611 15.9321 1.84613H2.7692Z" fill="#2D4059"/>
<path d="M13.8459 6.46146H6.46137C5.97174 6.46146 5.50217 6.26696 5.15595 5.92074C4.80974 5.57452 4.61523 5.10495 4.61523 4.61533V0.923066C4.61523 0.678253 4.71249 0.443468 4.88559 0.27036C5.0587 0.0972512 5.29349 0 5.5383 0H14.769C15.0138 0 15.2486 0.0972512 15.4217 0.27036C15.5948 0.443468 15.692 0.678253 15.692 0.923066V4.61533C15.692 5.10495 15.4975 5.57452 15.1513 5.92074C14.8051 6.26696 14.3355 6.46146 13.8459 6.46146ZM6.46137 1.84613V4.61533H13.8459V1.84613H6.46137Z" fill="#2D4059"/>
<path d="M18.4612 23.9997H5.5383C5.29349 23.9997 5.0587 23.9025 4.88559 23.7293C4.71249 23.5562 4.61523 23.3215 4.61523 23.0766V12.9229C4.61523 12.4333 4.80974 11.9637 5.15595 11.6175C5.50217 11.2713 5.97174 11.0768 6.46137 11.0768H17.5382C18.0278 11.0768 18.4973 11.2713 18.8436 11.6175C19.1898 11.9637 19.3843 12.4333 19.3843 12.9229V23.0766C19.3843 23.3215 19.287 23.5562 19.1139 23.7293C18.9408 23.9025 18.706 23.9997 18.4612 23.9997ZM6.46137 22.1536H17.5382V12.9229H6.46137V22.1536Z" fill="#2D4059"/>
</svg>
