<svg width="18" height="18" viewBox="0 0 18 18" fill="none" xmlns="http://www.w3.org/2000/svg">
<path d="M11.2324 1.03033C11.4104 0.983241 11.5995 0.990929 11.7738 1.05377L17.4085 3.08589C17.7636 3.21393 18 3.54759 18 3.92096V16.1111C18 16.4012 17.8566 16.6731 17.6159 16.8394C17.3752 17.0057 17.0674 17.0456 16.7915 16.9461L11.4653 15.0251L6.13916 16.9461C5.92666 17.0228 5.69227 17.0174 5.4835 16.9314L0.553711 14.8993C0.218542 14.7612 0 14.4376 0 14.079V1.88884C0 1.59163 0.150406 1.31411 0.400781 1.14926C0.6512 0.984457 0.968555 0.954159 1.24629 1.06853L5.85176 2.9661L11.1568 1.05377L11.2324 1.03033ZM12.4312 13.4817L16.2 14.8402V4.54162L12.4312 3.18311V13.4817ZM1.8 13.4861L5.0625 14.8307V4.56766L1.8 3.22217V13.4861ZM6.8625 4.49388V14.7925L10.6312 13.434V3.13537L6.8625 4.49388Z" fill="#666EFE"/>
</svg>
