<svg width="18" height="18" viewBox="0 0 18 18" fill="none" xmlns="http://www.w3.org/2000/svg">
<path d="M16.2 5.67261C16.2 5.32223 16.1984 5.05793 16.1912 4.84632C15.2864 5.499 14.189 6.30279 13.2574 6.99109C12.6944 7.4071 12.1927 7.7799 11.8318 8.0481C11.6514 8.18218 11.5056 8.28974 11.4056 8.36426C11.3556 8.40147 11.3175 8.43104 11.2913 8.45056C11.2782 8.46033 11.2681 8.46779 11.2614 8.47278C11.2581 8.47524 11.2552 8.47666 11.2535 8.47791L11.2518 8.47961C11.2466 8.48345 11.2412 8.48785 11.2359 8.49158C10.6876 8.8825 10.2187 9.23521 9.67588 9.3717C9.23258 9.4831 8.76653 9.48317 8.32324 9.3717C7.78084 9.23526 7.31401 8.88264 6.7667 8.49243C6.76249 8.48943 6.75855 8.4861 6.7544 8.48303V8.48389L1.80791 4.85144C1.80081 5.06281 1.8 5.32626 1.8 5.67517V12.3248C1.8 12.8293 1.80114 13.1553 1.82198 13.4032C1.84195 13.6407 1.87575 13.729 1.89844 13.7723C1.985 13.9373 2.12257 14.0716 2.29131 14.1551C2.33568 14.1771 2.42635 14.2101 2.67012 14.2295C2.92477 14.2497 3.25964 14.25 3.77754 14.25H14.2225C14.7401 14.25 15.0746 14.2497 15.329 14.2295C15.5722 14.2102 15.6633 14.1771 15.7078 14.1551C15.8776 14.071 16.0164 13.9365 16.1024 13.7723C16.1251 13.7292 16.159 13.6411 16.1789 13.404C16.1997 13.1567 16.2 12.8317 16.2 12.3282V5.67261ZM3.29502 3.75171L7.83106 7.08167L8.24502 7.37305C8.57495 7.60027 8.67935 7.6534 8.77412 7.67725C8.92193 7.71442 9.07807 7.71442 9.22588 7.67725C9.3525 7.64533 9.49681 7.56041 10.1707 7.07996C10.1771 7.07519 10.186 7.06878 10.1962 7.06116C10.2226 7.0415 10.2615 7.01286 10.3113 6.97571C10.4118 6.90088 10.5576 6.7923 10.7385 6.65784C11.1002 6.38895 11.603 6.01544 12.1676 5.59827C12.9573 5.01475 13.872 4.34475 14.6892 3.75171C14.5513 3.75082 14.396 3.75 14.2198 3.75H3.78018C3.5971 3.75 3.43691 3.75071 3.29502 3.75171ZM18 12.3282C18 12.8028 18.0009 13.2116 17.9727 13.5468C17.9437 13.8922 17.8789 14.2362 17.7056 14.567C17.4465 15.0612 17.0326 15.4624 16.5252 15.7137C16.1849 15.8823 15.8312 15.9453 15.4758 15.9735C15.131 16.0009 14.7105 16 14.2225 16H3.77754C3.28932 16 2.8683 16.0009 2.52334 15.9735C2.168 15.9453 1.81423 15.8823 1.47393 15.7137C0.965606 15.4619 0.553011 15.0602 0.294437 14.567C0.12097 14.236 0.0563329 13.8918 0.0272501 13.5459C-0.000964017 13.2102 3.99135e-06 12.8004 3.99135e-06 12.3248V5.67517C3.99135e-06 5.19956 -0.000959994 4.78989 0.0272501 4.4541C0.0563229 4.10824 0.120936 3.76404 0.294437 3.43299C0.553276 2.93917 0.966003 2.53791 1.47393 2.28626C1.81445 2.11758 2.16847 2.05476 2.52422 2.02649C2.8696 1.99907 3.29097 2 3.78018 2H14.2198C14.709 2 15.1306 1.99906 15.4758 2.02649C15.8314 2.05478 16.1849 2.11767 16.5252 2.28626C17.0322 2.53741 17.4462 2.93822 17.7056 3.43299C17.879 3.76384 17.9437 4.10777 17.9727 4.45325C18.0009 4.78863 18 5.19795 18 5.67261V12.3282Z" fill="#2D4059" fill-opacity="0.5"/>
</svg>
